PathFileType	4	(X/Y/Z)	27_2_92_p1_0-275.trc
DataRate	CameraRate	NumFrames	NumMarkers	Units	OrigDataRate	OrigDataStartFrame	OrigNumFrames
43.0	43.0	5	27	m	43.0	241	276
Frame#	Time	RHip			RKnee			RAnkle			RBigToe			RSmallToe			RHeel			LHip			LKnee			LAnkle			LBigToe			LSmallToe			LHeel			Neck			Head			Nose			RShoulder			RElbow			RWrist			RThumb			RIndex			RPinky			LShoulder			LElbow			LWrist			LThumb			LIndex			LPinky			
		X1	Y1	Z1	X2	Y2	Z2	X3	Y3	Z3	X4	Y4	Z4	X5	Y5	Z5	X6	Y6	Z6	X7	Y7	Z7	X8	Y8	Z8	X9	Y9	Z9	X10	Y10	Z10	X11	Y11	Z11	X12	Y12	Z12	X13	Y13	Z13	X14	Y14	Z14	X15	Y15	Z15	X16	Y16	Z16	X17	Y17	Z17	X18	Y18	Z18	X19	Y19	Z19	X20	Y20	Z20	X21	Y21	Z21	X22	Y22	Z22	X23	Y23	Z23	X24	Y24	Z24	X25	Y25	Z25	X26	Y26	Z26	X27	Y27	Z27	
241	5.604651162790698	0.13874502921255724	0.6670188551940117	1.030450951895116	0.1407004745278931	0.7031320413147442	1.4253539980339012	0.1603381937241544	0.8228325421682859	1.8468690920894018	0.12963943951212598	0.6062704541124239	1.843013956597797	0.18710705240109174	0.6135357166833011	1.834309537123507	0.15268550742464268	0.8990124840096793	1.9060115516568406	-0.0624496895167504	0.6738200710995141	1.0284731337491535	-0.052775988273991714	0.742559140258875	1.434239066463703	-0.02963409741364984	0.8135642809307394	1.8444645620521016	-0.031092340146243083	0.5955092649048487	1.8277829442727687	-0.08165827229437769	0.6510548171823073	1.8446379084376787	-0.012219004646546171	0.8793716345927213	1.8894279808867331	0.02381307761276626	0.6069826191286286	0.5080238971904945	0.031068920378134704	0.5226519527121947	0.24956942909274044	0.024773314990990853	0.44847104940148796	0.39793426365957946	0.158551122384018	0.5954121926998688	0.5850892818532537	0.18769433200893043	0.5785655434408589	0.8285618577049368	0.1117466885509036	0.48430602796053335	0.9974955377291892	0.014423767393419988	0.4520318773036255	1.063427792807032	0.0010808338599271848	0.46616098909389264	1.0766500817573872	0.008956393695438152	0.47977406989763727	1.0795507268035782	-0.11004185529158071	0.6406065429671908	0.5910674774271001	-0.146621077271994	0.5896550366558535	0.8087301242062516	-0.07316832777452194	0.47632414904323683	0.9868646891519913	0.008038335834222173	0.4415732664070467	1.0143653427325232	0.01573545065057088	0.4541448651060942	1.0721224737839408	0.00885643008150935	0.4918209744472903	1.0878110247007287
242	5.627906976744186	0.1398235484257224	0.6686680286090269	1.0353047721328466	0.1406986919420327	0.7030373119742431	1.4254030513850042	0.16034481208016338	0.8228744923437213	1.84686733297129	0.12946729915177024	0.6060147570365702	1.8430759246278214	0.18700528037269878	0.6134874918119737	1.834423796273282	0.15347197295205076	0.89805266284095	1.9007012892200823	-0.06152393963690111	0.6758922928110818	1.0336084776906171	-0.05165765413854364	0.7448390685016151	1.4399593817039915	-0.02961213553322435	0.8138018789206243	1.844524849523116	-0.03111317193272054	0.5959549160100042	1.828079189544979	-0.08179478339585855	0.6512224287266969	1.8447538777307588	-0.006558524162707432	0.8827224944028693	1.8909700724682954	0.023762101597992625	0.6072080092904267	0.5081187767511925	0.03509875059120891	0.5231929087872628	0.24940577133619363	0.02476698832699672	0.448296470345433	0.39795123272898003	0.1584466285488192	0.5955845917794151	0.5883077057887109	0.18385600269340385	0.5769099739438533	0.8319666606982935	0.11170844650998783	0.48424985423532746	0.9975414534487421	0.015281387840897848	0.4527367315153293	1.0676588062845878	0.003938483455836821	0.45396544266557576	1.073386497122279	0.009169938876540936	0.4797057220588351	1.079692506335544	-0.11000384168073465	0.6406841959773358	0.5911059392403021	-0.14201068594021007	0.5924823681724308	0.8128955399398642	-0.07319539880692166	0.47614727913587823	0.9869072959699042	0.008813955213237796	0.44234098300884617	1.0182237223373136	0.01569363614899269	0.45369138971162537	1.0720288702381642	0.008876680934050406	0.4915681997587772	1.0878091524136964
243	5.651162790697675	0.1335185690118847	0.6541000734544236	1.0275546177365633	0.1406482858551767	0.7030407849665056	1.4254721474520742	0.16028589702634416	0.8230632839197509	1.847098217893135	0.12947797191184215	0.605981251477032	1.8430981625245677	0.186955746533796	0.6133442759753426	1.8344313297644124	0.15275910811874674	0.899404910836284	1.9063328993257813	-0.06244335631956051	0.6737337383101669	1.028518039386375	-0.05351911913823854	0.7430033179022274	1.4386454853463182	-0.029720679201704465	0.813617140480429	1.8447184035625404	-0.03102013958508212	0.5958463367713959	1.8279152077192975	-0.08164064553406711	0.6514501988763006	1.8449213449631676	-0.012770695882710043	0.881031963561299	1.894871451274682	0.02675001805780748	0.5945600607585508	0.5070812220028937	0.03529743122472894	0.5233204950088037	0.2494960464936587	0.024845950029808703	0.44813483492042494	0.39797588014487273	0.15843451980193088	0.5956189289022732	0.5882736809379729	0.183616074141113	0.577107447686282	0.8358962163925521	0.11142542210967961	0.4845977472304292	1.0014977001625402	0.015411965066645675	0.45319849816308505	1.0680491354468584	0.006225050647417392	0.47952626738324167	1.0844318014865633	0.014330239515720641	0.4932663004508542	1.0872045801887442	-0.10579112768772822	0.6417810563677087	0.591006503293415	-0.14584374102581768	0.5910710462928954	0.8127398251602833	-0.07239982962922964	0.47737257785723014	0.991000425355021	0.009312458548325788	0.4430772409209238	1.0299017419540077	0.015638819674235974	0.45387417885343107	1.0721619463193797	0.008814193588024101	0.4916644096751253	1.0878586195430184
244	5.674418604651163	0.13716342588248673	0.6830313269164531	1.0388532695320676	0.14066307444921697	0.7030030210858463	1.4257279548543793	0.16288658777431497	0.8055862709614653	1.8382839441673302	0.12951937054416418	0.606843902515401	1.8435522275644864	0.18704035294334767	0.6141840300437221	1.8345578455857254	0.15354223707715223	0.8981831199625885	1.9007859953361792	-0.062371746952915835	0.6736479487596269	1.0287783756161843	-0.053492935726162726	0.7429766628298041	1.438758212816191	-0.02966053255493677	0.8138202820572301	1.8446476173498094	-0.03108102637245627	0.5960507907706026	1.8280828654327204	-0.08170850452902664	0.6516622957062619	1.8450199104043106	-0.0063884178107112295	0.8842557465660471	1.8917130641454125	0.02806028826824483	0.6201069188600388	0.5088139198804077	0.03498602772531277	0.5234657098564708	0.24601134012819367	0.024862995466468373	0.4480530463172417	0.3979702648805693	0.15860221034854688	0.595590214909954	0.5850921283083627	0.18361638720487233	0.5771000931197324	0.8358804419371115	0.11136679139856996	0.4845800810764193	1.0014807470008031	0.015377203146968069	0.45291554232573417	1.0679700036704618	0.004148515929157232	0.454252324145698	1.073799091183789	0.0101136825570204	0.48160643600217945	1.0842023562301357	-0.10579572350232694	0.6417676553207301	0.5910100618622026	-0.14187152775872697	0.592494803172157	0.8128187177021478	-0.07237572366848316	0.47719783339927585	0.9909483095661755	0.009301389701318677	0.44235531817893176	1.0297356655271874	0.015606687341503967	0.4533346780648416	1.0720431156285088	0.008779277653731963	0.49169880321161497	1.0878666162687227
245	5.6976744186046515	0.1369355799996714	0.6838644090985192	1.0351883832987812	0.1399917174513034	0.7036258342473986	1.4302029853393128	0.16289370588230329	0.805674440841074	1.838403431229533	0.12965164825001224	0.606700000454519	1.8434021769377407	0.18715769013633762	0.6142076340473236	1.8345360597963614	0.15271853142107364	0.8990505164038813	1.9059921963581727	-0.061453839033981175	0.6755663711212294	1.033842064219446	-0.05348417347715811	0.7431401215463064	1.43875304045803	-0.02971147515607443	0.8136205417093311	1.8446292198998837	-0.031099319656895233	0.5957738572066794	1.8278354574686317	-0.08170403107777972	0.6516085682042824	1.8449718511017725	-0.012133066007278145	0.8812108769387892	1.890311709117642	0.02808125530218011	0.6200373420854168	0.5087634973766914	0.035010399924085535	0.5234669256925165	0.245965244978178	0.02478596920655353	0.447829036537099	0.39794192669476297	0.1586181931253158	0.595647330413287	0.5851045442033883	0.18334157662986447	0.5775158459225432	0.8326355923138546	0.11134140165577236	0.4843864542748423	1.001376590018378	0.015264251714203253	0.4525948935944635	1.0677985674510095	0.004015836551127441	0.45390324256680675	1.0735875701757696	0.01013824628590581	0.4812329868013972	1.0840993287845102	-0.10580304557374458	0.6418166911332072	0.5910343451139463	-0.14205228062180453	0.5928724338922976	0.8094215734662743	-0.07235513450570719	0.4769810404896367	0.9908824579714012	0.012194183020522479	0.4295471855666389	1.0261711201715407	0.018541110977948996	0.4403683015823171	1.0683718355587097	0.008779985735461382	0.49139791336212696	1.0878212953430604
